# V-HACD convex decomposition
o convex_0
v 39.000000 -5.629709 -55.536472
v 39.000000 -55.500000 -55.536472
v 25.000000 -55.500000 -115.000000
v -28.000000 -5.500000 -115.000000
v -9.000000 -55.500000 -54.015152
v 25.000000 -7.500000 -115.000000
v 39.000000 -5.629709 -79.536476
v 25.999989 -3.250000 -54.015152
v -12.000000 -55.500000 -115.000000
v 39.000000 -55.500000 -79.536476
v -5.982322 2.001459 -54.015152
v 9.000000 2.500000 -95.000000
v -30.999989 -28.400826 -90.975298
v 5.982322 2.001459 -54.015152
v 9.000000 2.499999 -115.000000
v -28.000000 -35.000000 -115.000000
v -30.999989 -7.039658 -88.403290
v -9.000000 2.499999 -115.000000
v -10.565239 -55.500000 -80.707489
v -30.999989 -23.023764 -109.703659
v -30.999989 -23.023764 -85.796349
v -30.999989 -3.983415 -93.424519
v -30.999989 -28.555113 -104.269487
v -30.999989 -11.989778 -85.118885
v -30.999989 -3.884432 -101.757841
v -30.999989 -9.869979 -109.337162
v -30.999989 -6.865415 -106.922467
f 5 3 2
f 6 3 4
f 7 1 2
f 7 3 6
f 8 5 2
f 8 2 1
f 9 4 3
f 9 3 5
f 10 7 2
f 10 2 3
f 10 3 7
f 11 5 8
f 12 1 7
f 14 8 1
f 14 1 12
f 14 12 11
f 14 11 8
f 15 12 7
f 15 7 6
f 15 6 4
f 16 5 13
f 16 4 9
f 18 15 4
f 18 11 12
f 18 12 15
f 19 16 9
f 19 9 5
f 19 5 16
f 20 4 16
f 20 13 17
f 21 17 13
f 21 13 5
f 22 17 11
f 22 11 18
f 22 20 17
f 23 20 16
f 23 16 13
f 23 13 20
f 24 21 5
f 24 5 11
f 24 11 17
f 24 17 21
f 25 22 18
f 25 18 4
f 25 20 22
f 26 4 20
f 26 20 25
f 27 26 25
f 27 25 4
f 27 4 26
o convex_1
v 5.982322 2.001459 60.984848
v 9.000000 -55.500000 60.984848
v 9.000000 -3.000000 -54.015152
v -5.982322 2.001459 -54.015152
v -9.378788 -55.500000 60.984848
v 5.982322 2.001459 -54.015152
v 13.000000 -43.000000 21.000000
v -5.982322 2.001459 60.984848
v 11.530303 -55.500000 -55.536472
v 9.000000 -3.000000 60.984848
v -13.000000 -43.000000 21.000000
v 13.000000 -43.000000 -21.000000
v 11.530303 -62.500000 -22.651515
v -9.000000 -55.500000 -54.015152
v 13.000000 -45.833333 21.000000
v 13.000000 -45.833333 -21.000000
v -13.000000 -43.000000 -21.000000
v -8.582071 -62.500000 -30.318289
v 10.301416 -62.500000 -29.820357
v -9.378788 -62.500000 -22.651515
v -13.000000 -45.833333 21.000000
v -13.000000 -45.833333 -21.000000
f 33 28 30
f 33 31 28
f 35 28 31
f 35 32 29
f 35 29 28
f 36 33 30
f 36 31 33
f 37 28 29
f 37 29 34
f 37 34 30
f 37 30 28
f 38 35 31
f 38 32 35
f 39 36 30
f 39 30 34
f 41 31 36
f 42 34 29
f 42 29 40
f 42 39 34
f 43 40 36
f 43 36 39
f 43 42 40
f 43 39 42
f 44 38 31
f 44 31 41
f 45 41 36
f 46 45 36
f 46 36 40
f 46 40 45
f 47 45 40
f 47 41 45
f 47 40 29
f 47 29 32
f 48 47 32
f 48 32 38
f 48 38 44
f 49 44 41
f 49 41 47
f 49 48 44
f 49 47 48
o convex_2
v 28.000000 -5.500000 115.000000
v 28.000000 -35.000000 115.000000
v 25.999989 -3.250000 78.409091
v -25.999989 -3.250000 50.530303
v -25.000000 -5.500000 115.000000
v 9.000000 -55.500000 60.984848
v 30.999989 -11.996204 85.139473
v 9.000000 2.499999 115.000000
v 9.000000 -3.000000 60.984848
v -39.000000 -55.500000 55.536472
v 30.999989 -23.013723 109.684525
v 30.999989 -4.004004 93.430932
v 25.999989 -30.250000 78.409091
v -9.000000 2.499999 115.000000
v -15.999990 -30.250000 50.530303
v 5.982322 2.001459 60.984848
v -39.000000 -5.629709 79.536476
v -25.000000 -55.500000 115.000000
v 30.999989 -7.054906 88.418542
v 30.999989 -6.880664 106.907215
v 30.999989 -3.905021 101.751422
v 30.999989 -28.382367 90.986447
v -15.999990 -3.250000 50.530303
v -25.999989 -30.250000 50.530303
v -9.000000 -55.500000 54.015152
v 9.000000 2.500000 95.000000
v -5.982322 2.001459 60.984848
v -39.000000 -5.629709 55.536472
v 12.000000 -55.500000 115.000000
v -39.000000 -55.500000 79.536476
v 11.640996 -55.500000 81.783246
v 30.999989 -28.536658 104.258329
f 54 51 50
f 57 54 50
f 60 50 51
f 61 60 56
f 62 52 56
f 62 58 52
f 62 55 58
f 63 54 57
f 64 58 55
f 65 52 58
f 65 61 52
f 66 54 63
f 67 59 55
f 67 51 54
f 67 54 66
f 68 61 56
f 68 56 52
f 68 52 61
f 69 50 60
f 69 60 61
f 70 57 50
f 70 69 61
f 70 50 69
f 71 55 62
f 71 62 56
f 71 56 60
f 72 64 53
f 72 58 64
f 72 65 58
f 72 53 65
f 73 59 53
f 73 53 64
f 74 64 55
f 74 55 59
f 74 73 64
f 74 59 73
f 75 61 65
f 75 70 61
f 75 57 70
f 75 63 57
f 76 65 53
f 76 75 65
f 76 63 75
f 77 53 59
f 77 59 66
f 77 76 53
f 77 66 63
f 77 63 76
f 78 67 55
f 78 51 67
f 79 67 66
f 79 66 59
f 79 59 67
f 80 71 51
f 80 55 71
f 80 78 55
f 80 51 78
f 81 71 60
f 81 60 51
f 81 51 71
o convex_3
v 9.000000 -45.833333 33.106061
v 28.372891 -62.500000 13.680628
v 13.000000 -45.833333 -21.000000
v -9.000000 -52.803030 -33.106061
v -26.487110 -62.500000 16.904597
v 16.695217 -62.500000 -26.792976
v -12.106061 -43.000000 -21.893939
v 28.372891 -55.500000 13.680628
v 10.401671 -62.500000 29.678921
v 16.695217 -55.500000 -26.792976
v -17.497086 -62.500000 -26.180590
v -15.352539 -64.933014 1.685449
v -9.000000 -42.348485 -22.651515
v -9.000000 -45.833333 33.106061
v 16.669230 -55.500000 26.679817
v 13.000000 -45.833333 21.000000
v 28.352870 -55.500000 -13.868868
v -9.000000 -42.348485 -26.136364
v -8.582071 -62.500000 -30.318289
v -26.616302 -55.500000 -16.778854
v 15.133102 -64.750000 -4.257286
v -30.448787 -62.500000 -7.833268
v -1.789532 -64.750000 15.520198
v -13.000000 -45.833333 21.000000
v -9.000000 -52.803030 33.106061
v 16.669230 -62.500000 26.679817
v 28.352870 -62.500000 -13.868868
v -11.458854 -62.500000 -29.350062
v -17.497086 -55.500000 -26.180590
v -1.806044 -64.750000 -15.617393
v -30.411710 -62.500000 7.965055
v -26.616302 -62.500000 -16.778854
f 91 87 85
f 95 82 94
f 96 89 82
f 96 83 89
f 97 89 84
f 97 82 89
f 97 94 82
f 97 84 94
f 98 89 83
f 98 87 91
f 98 91 84
f 98 84 89
f 99 91 85
f 99 84 91
f 99 94 84
f 99 88 94
f 100 85 87
f 101 88 99
f 104 90 86
f 104 86 93
f 104 93 102
f 104 102 83
f 105 95 94
f 105 94 88
f 105 88 101
f 106 90 82
f 106 82 95
f 106 95 86
f 106 86 90
f 107 83 96
f 107 104 83
f 107 90 104
f 107 96 82
f 107 82 90
f 108 98 83
f 108 87 98
f 108 102 87
f 108 83 102
f 109 92 85
f 109 85 100
f 110 85 92
f 110 92 101
f 110 101 99
f 110 99 85
f 111 100 87
f 111 87 102
f 111 102 93
f 111 109 100
f 111 92 109
f 112 103 93
f 112 93 86
f 112 101 103
f 112 105 101
f 112 86 95
f 112 95 105
f 113 93 103
f 113 111 93
f 113 92 111
f 113 103 101
f 113 101 92
o convex_4
v 25.999989 -3.250000 78.409091
v 25.999989 -5.250000 78.409091
v 28.954545 -9.303504 -56.426193
v 15.015152 -5.500000 -115.000000
v 15.999990 -5.250000 78.409091
v 25.999989 -3.250000 -54.015152
v 15.015152 -7.500000 -115.000000
v 25.000000 -5.500000 -115.000000
v 15.999990 -3.250000 78.409091
v 25.000000 -7.500000 -115.000000
v 15.999990 -4.494700 -73.140010
f 114 115 116
f 118 115 114
f 118 116 115
f 119 114 116
f 120 118 117
f 120 116 118
f 121 119 116
f 121 117 119
f 121 120 117
f 122 118 114
f 122 114 119
f 122 117 118
f 123 121 116
f 123 116 120
f 123 120 121
f 124 122 119
f 124 119 117
f 124 117 122
o convex_5
v -15.999990 -28.250000 50.530303
v -15.999990 -30.250000 50.530303
v -9.000000 -24.924242 -71.439394
v -25.999989 -28.250000 -81.893939
v -25.999989 -28.250000 50.530303
v -16.348485 -30.250000 -81.893939
v -15.999990 -30.250000 -71.439394
v -16.348485 -28.250000 -81.893939
v -25.999989 -30.250000 50.530303
v -25.999989 -30.250000 -81.893939
f 125 126 127
f 129 126 125
f 129 125 127
f 129 127 128
f 131 130 127
f 131 127 126
f 131 126 130
f 132 128 127
f 132 127 130
f 133 129 128
f 133 130 126
f 133 126 129
f 134 133 128
f 134 130 133
f 134 132 130
f 134 128 132
o convex_6
v -15.999990 -3.250000 50.530303
v -15.999990 -5.250000 50.530303
v -12.863636 -8.713512 -86.927724
v -25.999989 -3.250000 -85.378788
v -25.999989 -5.250000 50.530303
v -15.999990 -3.250000 -85.378788
v -25.999989 -3.250000 50.530303
v -25.999989 -5.250000 -85.378788
f 135 136 137
f 139 136 135
f 139 137 136
f 140 135 137
f 140 137 138
f 140 138 135
f 141 139 135
f 141 135 138
f 141 138 139
f 142 139 138
f 142 138 137
f 142 137 139
o convex_7
v 25.999989 -28.250000 78.409091
v 25.999989 -30.250000 78.409091
v 28.954545 -23.781066 -55.906191
v 13.500000 -23.781066 -55.906191
v 15.999990 -30.250000 78.409091
v 15.999990 -30.250000 -54.015152
v 15.999990 -28.250000 78.409091
v 25.999989 -30.250000 -54.015152
f 143 144 145
f 143 145 146
f 147 144 143
f 148 146 145
f 148 147 146
f 148 144 147
f 149 147 143
f 149 143 146
f 149 146 147
f 150 148 145
f 150 145 144
f 150 144 148
