# V-HACD convex decomposition
o convex_0
v 19.000011 62.828362 93.565056
v 18.999991 21.663207 94.266922
v 19.000011 21.663206 54.266922
v -12.721756 62.128305 54.354927
v -19.000011 62.828362 93.565056
v 13.078244 62.128305 54.354927
v -19.000011 21.663206 54.266922
v 19.000011 62.317686 83.582096
v 13.078244 70.547464 86.595875
v -19.000011 21.663206 94.266922
v -19.000011 62.317686 83.582096
v 19.000011 31.688653 55.735363
v 13.078244 69.524827 78.547050
v -19.000011 31.688653 55.735363
v -12.721756 70.547464 86.595875
v 19.000011 59.264678 80.765474
f 1 2 3
f 5 2 1
f 7 6 3
f 7 4 6
f 8 1 3
f 9 5 1
f 9 1 8
f 10 2 5
f 10 5 7
f 10 7 3
f 10 3 2
f 11 7 5
f 12 8 3
f 12 3 6
f 13 9 8
f 13 8 6
f 13 6 4
f 14 11 4
f 14 4 7
f 14 7 11
f 15 4 11
f 15 13 4
f 15 9 13
f 15 11 5
f 15 5 9
f 16 12 6
f 16 6 8
f 16 8 12
o convex_1
v 11.978245 7.138304 99.754929
v 25.999989 2.987007 83.651924
v 18.999991 21.663207 94.266922
v -19.000011 21.663206 54.266922
v -13.088018 -1.995432 54.354927
v 19.000011 21.663206 54.266922
v -19.000011 21.663206 94.266922
v 12.742435 -2.297479 99.754929
v 23.641857 15.739568 83.651924
v 18.999989 7.500000 54.266922
v -19.000011 7.500000 94.266922
v 18.999989 7.500000 94.266922
v 25.999989 -6.351093 64.881920
v -19.000011 7.500000 54.266922
v -13.088018 -1.995432 99.754929
v 25.999989 -6.349754 68.281432
f 22 20 19
f 23 17 19
f 23 19 20
f 24 19 17
f 25 22 19
f 25 19 18
f 26 20 22
f 27 23 20
f 28 24 18
f 28 18 19
f 28 19 24
f 29 21 26
f 29 26 22
f 29 25 18
f 29 22 25
f 30 26 21
f 30 20 26
f 30 27 20
f 30 21 27
f 31 27 21
f 31 24 17
f 31 17 23
f 31 23 27
f 31 21 29
f 32 29 18
f 32 18 24
f 32 31 29
f 32 24 31
o convex_2
v 13.078244 71.318339 86.391552
v 13.078244 62.128305 77.612076
v 13.078244 141.260544 54.702156
v -12.721756 141.260544 54.702156
v -12.721756 62.128305 77.612076
v -12.721756 107.238107 74.033142
v -12.721756 62.128305 54.354927
v 13.078244 107.238107 74.033142
v -12.721756 131.792653 61.746307
v -12.721756 71.318339 86.391552
v 13.078244 62.128305 54.354927
v -12.721756 79.896744 83.997822
v 13.078244 141.036636 56.200630
v 13.078244 79.896744 83.997822
v -12.721756 141.036636 56.200630
v 13.078244 131.792653 61.746307
f 33 34 35
f 37 34 33
f 38 36 37
f 39 34 37
f 39 37 36
f 40 33 35
f 41 36 38
f 41 38 40
f 42 38 37
f 42 37 33
f 43 35 34
f 43 34 39
f 43 39 36
f 43 36 35
f 44 40 38
f 44 42 33
f 44 38 42
f 45 35 36
f 45 40 35
f 46 44 33
f 46 33 40
f 46 40 44
f 47 45 36
f 47 36 41
f 47 41 45
f 48 45 41
f 48 41 40
f 48 40 45
o convex_3
v 25.999989 2.987007 83.651924
v 25.999989 -20.283649 82.809082
v 25.999989 -6.351093 64.881920
v 10.599989 -6.845980 64.881920
v 10.599989 -20.358000 83.651924
v 10.599989 -20.358000 64.881920
v 13.599989 2.987007 68.273976
v 25.999989 -19.367729 64.881920
v 25.999989 2.987007 68.273976
v 13.683337 2.987007 83.651924
v 10.599989 -6.845980 83.651924
f 49 50 51
f 53 50 49
f 54 52 51
f 54 53 52
f 54 50 53
f 55 51 52
f 56 54 51
f 56 51 50
f 56 50 54
f 57 55 49
f 57 49 51
f 57 51 55
f 58 53 49
f 58 49 55
f 59 58 55
f 59 55 52
f 59 52 53
f 59 53 58
